<svg xmlns="http://www.w3.org/2000/svg" viewBox="0 0 410 404"><defs><linearGradient id="a" x1="0" x2="1" y1="0" y2="1"><stop stop-color="#41D1FF" offset="0"></stop><stop stop-color="#BD34FE" offset="1"></stop></linearGradient><linearGradient id="b" x1="0" x2="1" y1="0" y2="1"><stop stop-color="#FFEA83" offset="0"></stop><stop stop-color="#FFDD35" offset="0.1"></stop><stop stop-color="#FFA800" offset="1"></stop></linearGradient></defs><path fill="url(#a)" d="M399.6 79.5L215.4 390.7c-5.6 9.3-19.2 9.3-24.8 0L10.4 79.5C4.2 69 .7 57.1.1 44.8a20.5 20.5 0 0112.7-19L196.5 1.2c5.2-2.1 11-2.1 16.2 0l183.6 24.6a20.5 20.5 0 0112.7 19c-.6 12.3-4 24.2-10.3 34.7z"></path><path fill="url(#b)" d="M308.2 1.3L163 373.5c-4.1 11-19.4 11-23.5 0L2.4 1.3C-.9-7.2 6.6-15 15.6-13.4l181 29.9c6.1 1 12.3 1 18.4 0l181-29.9c9-1.5 16.5 6.2 13.2 14.7z"></path></svg>
